<svg xmlns="http://www.w3.org/2000/svg" version="1.1" xmlns:xlink="http://www.w3.org/1999/xlink" xmlns:svgjs="http://svgjs.dev/svgjs" width="1500" height="193" viewBox="0 0 1500 193"><g transform="matrix(1,0,0,1,-0.9090909090909918,-0.2306623623659192)"><svg viewBox="0 0 396 51" data-background-color="#000000" preserveAspectRatio="xMidYMid meet" height="193" width="1500" xmlns="http://www.w3.org/2000/svg" xmlns:xlink="http://www.w3.org/1999/xlink"><g id="tight-bounds" transform="matrix(1,0,0,1,0.2400000000000091,0.06095223046975207)"><svg viewBox="0 0 395.52 50.87809553906047" height="50.87809553906047" width="395.52"><g><svg viewBox="0 0 562.140047829103 72.31142561635599" height="50.87809553906047" width="395.52"><g transform="matrix(1,0,0,1,0,9.993836680697537)"><svg viewBox="0 0 395.52 52.323752254960915" height="52.323752254960915" width="395.52"><g id="textblocktransform"><svg viewBox="0 0 395.52 52.323752254960915" height="52.323752254960915" width="395.52" id="textblock"><g><svg viewBox="0 0 395.52 52.323752254960915" height="52.323752254960915" width="395.52"><g transform="matrix(1,0,0,1,0,0)"><svg width="395.52" viewBox="2.4399999999999995 -31.74 243.58 32.230000000000004" height="52.323752254960915" data-palette-color="url(#3900be11-0d6c-447f-a032-e0060e0d95e1)"></svg></g></svg></g></svg></g></svg></g><g transform="matrix(1,0,0,1,407.87238213734213,0)"><svg viewBox="0 0 154.26766569176087 72.31142561635599" height="72.31142561635599" width="154.26766569176087"><g><svg xmlns="http://www.w3.org/2000/svg" xmlns:xlink="http://www.w3.org/1999/xlink" version="1.0" x="0" y="0" viewBox="0 0 100 46.874" enable-background="new 0 0 100 46.875" xml:space="preserve" id="icon-0" width="154.26766569176087" height="72.31142561635599" class="icon-icon-0" data-fill-palette-color="accent"></svg></g></svg></g></svg></g><defs></defs><mask id="4ca0be61-49e2-49f0-af1d-059e51288b07"><g id="SvgjsG1027"><svg viewBox="0 0 395.52 50.87809553906047" height="50.87809553906047" width="395.52"><g><svg viewBox="0 0 562.140047829103 72.31142561635599" height="50.87809553906047" width="395.52"><g transform="matrix(1,0,0,1,0,9.993836680697537)"><svg viewBox="0 0 395.52 52.323752254960915" height="52.323752254960915" width="395.52"><g id="SvgjsG1026"><svg viewBox="0 0 395.52 52.323752254960915" height="52.323752254960915" width="395.52" id="SvgjsSvg1025"><g><svg viewBox="0 0 395.52 52.323752254960915" height="52.323752254960915" width="395.52"><g transform="matrix(1,0,0,1,0,0)"><svg width="395.52" viewBox="2.4399999999999995 -31.74 243.58 32.230000000000004" height="52.323752254960915" data-palette-color="url(#3900be11-0d6c-447f-a032-e0060e0d95e1)"><path d="M26.76-2.25L26.76-2.25Q26.76-0.2 27.34 0.1L27.34 0.1Q27.69 0.24 28.27 0.24L28.27 0.24 28.27-8.98 27.1-8.98Q24.61-0.93 17.14-0.88L17.14-0.88Q10.79-0.88 8.5-7.28L8.5-7.28Q7.37-10.4 7.37-14.65L7.37-14.65Q7.37-23.78 12.4-27.05L12.4-27.05Q14.6-28.42 17.29-28.42L17.29-28.42Q23.39-28.42 26.12-22.66L26.12-22.66Q26.61-21.63 26.95-20.56L26.95-20.56 28.13-20.56 27.98-29.54Q26.9-29.54 26.66-28.86L26.66-28.86Q26.51-28.27 26.51-26.95L26.51-26.95Q25.1-28.37 21.68-29.25L21.68-29.25Q19.43-29.79 17.09-29.79L17.09-29.79Q9.38-29.79 5.27-24.07L5.27-24.07Q2.44-20.02 2.44-14.75L2.44-14.75Q2.44-8.35 6.4-4L6.4-4Q10.6 0.49 17.33 0.49L17.33 0.49Q22.27 0.44 26.76-2.25ZM41.94-1.22L41.94-1.22 39.5-1.22 39.5-20.75 31.93-20.75 31.93-19.53 35.84-19.53 35.84-4.15Q35.84-1.9 34.32-1.42L34.32-1.42Q33.59-1.22 31.93-1.22L31.93-1.22 31.93 0 43.16 0Q43.16-1.07 42.43-1.17L42.43-1.17Q42.19-1.22 41.94-1.22ZM40.09-27.88L40.09-27.88Q40.09-29.59 38.57-30.32L38.57-30.32Q37.99-30.57 37.45-30.57L37.45-30.57Q35.74-30.57 35.01-29L35.01-29Q34.76-28.47 34.76-27.88L34.76-27.88Q34.76-26.07 36.37-25.39L36.37-25.39Q36.91-25.2 37.45-25.2L37.45-25.2Q39.16-25.2 39.84-26.76L39.84-26.76Q40.09-27.29 40.09-27.88ZM55.61-1.22L55.61-1.22 53.41-1.22 53.41-11.77Q53.56-16.31 56.64-18.31L56.64-18.31Q57.95-19.14 59.32-19.14L59.32-19.14Q62.3-19.14 63.37-16.36L63.37-16.36Q63.81-15.23 63.81-13.82L63.81-13.82 63.81-4.15Q63.81-1.9 62.54-1.46L62.54-1.46Q61.81-1.22 60.15-1.22L60.15-1.22 60.15 0 71.14 0Q71.14-1.07 70.41-1.17L70.41-1.17Q70.21-1.22 69.92-1.22L69.92-1.22 67.48-1.22 67.48-13.33Q67.48-18.21 64.11-20.31L64.11-20.31Q62.54-21.24 60.74-21.24L60.74-21.24Q57.12-21.24 54.78-18.36L54.78-18.36Q53.9-17.24 53.36-15.87L53.36-15.87 53.17-20.75 46.09-20.75 46.09-19.53 49.75-19.53 49.75-4.15Q49.75-1.9 48.48-1.46L48.48-1.46Q47.75-1.22 46.09-1.22L46.09-1.22 46.09 0 56.83 0Q56.83-1.07 56.1-1.17L56.1-1.17Q55.9-1.22 55.61-1.22ZM84.51-20.02L84.51-20.02Q87.93-20.02 89.06-17.14L89.06-17.14Q89.45-16.21 89.45-15.14L89.45-15.14Q89.45-12.7 87.1-12.16L87.1-12.16Q85.88-11.91 83.64-11.96L83.64-11.96 78.46-12.11Q78.7-17.72 82.12-19.43L82.12-19.43Q83.24-20.02 84.51-20.02ZM93.01-4.69L93.01-4.69 91.79-5.13Q90.08-1.42 86.27-0.93L86.27-0.93Q85.78-0.88 85.34-0.88L85.34-0.88Q80.22-0.88 78.9-6.98L78.9-6.98Q78.51-8.69 78.46-10.74L78.46-10.74 84.32-10.64Q90.28-10.55 91.98-11.77L91.98-11.77Q93.3-12.74 93.3-14.55L93.3-14.55Q93.3-17.87 89.93-19.82L89.93-19.82Q87.54-21.24 84.42-21.24L84.42-21.24Q78.31-21.24 75.68-16.16L75.68-16.16Q74.31-13.53 74.31-10.21L74.31-10.21Q74.31-4.15 78.65-1.22L78.65-1.22Q81.24 0.49 84.56 0.49L84.56 0.49Q89.84 0.49 92.33-3.32L92.33-3.32Q92.72-4 93.01-4.69ZM106-1.22L106-1.22 103.8-1.22 103.8-11.77Q103.95-16.06 106.78-18.16L106.78-18.16Q108.1-19.14 109.41-19.14L109.41-19.14Q111.86-19.14 112.78-16.46L112.78-16.46Q113.17-15.28 113.17-13.82L113.17-13.82 113.17-4.15Q113.17-1.9 112.1-1.46L112.1-1.46Q111.42-1.22 109.76-1.22L109.76-1.22 109.76 0 120.25 0Q120.25-1.07 119.52-1.17L119.52-1.17Q119.33-1.22 119.03-1.22L119.03-1.22 116.84-1.22 116.84-13.33 116.84-13.72Q117.62-17.29 120.3-18.7L120.3-18.7Q121.33-19.19 122.26-19.19L122.26-19.19Q124.75-19.19 125.77-16.6L125.77-16.6Q126.26-15.38 126.26-13.82L126.26-13.82 126.26-4.15Q126.26-1.9 125.19-1.46L125.19-1.46Q124.5-1.22 122.84-1.22L122.84-1.22 122.84 0 133.63 0Q133.63-1.07 132.9-1.17L132.9-1.17Q132.7-1.22 132.41-1.22L132.41-1.22 129.92-1.22 129.92-13.33Q129.92-18.36 126.65-20.36L126.65-20.36Q125.19-21.24 123.48-21.24L123.48-21.24Q119.77-21.24 117.52-17.77L117.52-17.77Q116.93-16.89 116.54-15.92L116.54-15.92Q115.66-19.78 112.69-20.9L112.69-20.9Q111.81-21.24 110.88-21.24L110.88-21.24Q107.36-21.24 105.07-18.26L105.07-18.26Q104.24-17.19 103.75-15.87L103.75-15.87 103.55-20.75 96.47-20.75 96.47-19.53 100.14-19.53 100.14-4.15Q100.14-1.9 98.87-1.46L98.87-1.46Q98.13-1.22 96.47-1.22L96.47-1.22 96.47 0 107.22 0Q107.22-1.03 106.48-1.17L106.48-1.17Q106.24-1.22 106-1.22ZM153.94 0.49L153.94 0.49Q157.7 0.49 158.09-4.05L158.09-4.05Q158.14-4.35 158.14-4.59L158.14-4.59 156.87-4.64Q156.53-1.07 154.97-1.03L154.97-1.03Q153.7-1.12 153.65-3.56L153.65-3.56 153.65-13.87Q153.65-20.85 146.67-21.24L146.67-21.24Q146.23-21.24 145.79-21.24L145.79-21.24Q140.32-21.24 138.46-18.7L138.46-18.7Q137.88-17.87 137.88-17.04L137.88-17.04Q137.88-15.53 139.29-15.28L139.29-15.28Q139.54-15.23 139.78-15.23L139.78-15.23Q140.91-15.23 141.44-16.65L141.44-16.65Q142.13-18.46 142.37-18.8L142.37-18.8Q143.3-20.02 145.25-20.02L145.25-20.02Q149.84-19.73 149.99-14.99L149.99-14.99 149.99-11.91Q138.51-11.91 136.85-7.13L136.85-7.13Q136.56-6.2 136.56-5.13L136.56-5.13Q136.56-1.42 139.83-0.05L139.83-0.05Q141.15 0.49 142.61 0.49L142.61 0.49Q146.18 0.49 148.62-1.95L148.62-1.95Q149.5-2.88 149.94-3.91L149.94-3.91Q150.52 0.44 153.94 0.49ZM144.23-1.46L144.23-1.46Q141.25-1.46 140.56-4.44L140.56-4.44Q140.42-5.13 140.42-5.96L140.42-5.96Q140.42-9.23 144.18-10.11L144.18-10.11Q146.18-10.55 149.99-10.6L149.99-10.6 149.99-6.69Q149.26-3.32 146.42-1.95L146.42-1.95Q145.3-1.46 144.23-1.46ZM160.34 0L172.3 0Q172.3-1.07 171.52-1.22L171.52-1.22Q171.27-1.27 171.03-1.27L171.03-1.27 168.44-1.27 168.44-14.4 183.43-14.4 183.43-1.27 179.53-1.27 179.53 0 191.49 0Q191.49-1.07 190.71-1.22L190.71-1.22Q190.46-1.27 190.22-1.27L190.22-1.27 187.63-1.27 187.63-28.03 191.49-28.03 191.49-29.3 179.53-29.3 179.53-28.03 183.43-28.03 183.43-15.82 168.44-15.82 168.44-28.03 172.3-28.03 172.3-29.3 160.34-29.3 160.34-28.03 164.24-28.03 164.24-1.27 160.34-1.27 160.34 0ZM218.59-1.22L218.59-1.22 216.14-1.22 216.14-20.75 208.48-20.75 208.48-19.53 212.48-19.53 212.48-8.98Q212.48-4.59 209.41-2.54L209.41-2.54Q208.04-1.61 206.57-1.61L206.57-1.61Q202.57-1.61 201.94-5.71L201.94-5.71Q201.84-6.4 201.84-7.18L201.84-7.18 201.84-20.75 194.42-20.75 194.42-19.53 198.18-19.53 198.18-7.91Q198.22 0.44 205.16 0.49L205.16 0.49Q208.82 0.49 211.16-2.49L211.16-2.49Q212.04-3.61 212.58-4.98L212.58-4.98 212.92 0 219.81 0Q219.81-1.07 219.07-1.17L219.07-1.17Q218.88-1.22 218.59-1.22ZM236.06 0.49L236.06 0.49Q240.36 0.49 243.29-2.73L243.29-2.73Q246.02-5.86 246.02-10.64L246.02-10.64Q246.02-16.02 243.1-19.04L243.1-19.04Q240.9-21.24 237.68-21.24L237.68-21.24Q232.35-21.24 230.11-16.46L230.11-16.46Q229.86-16.02 229.72-15.58L229.72-15.58 229.72-31.74 222.39-31.74 222.39-30.52 226.05-30.52 226.05-4.15Q226.05-1.9 224.78-1.46L224.78-1.46Q224.05-1.22 222.39-1.22L222.39-1.22 222.39 0 228.54 0 228.98-3.22Q231.08 0.15 235.33 0.44L235.33 0.44Q235.72 0.49 236.06 0.49ZM236.16-19.29L236.16-19.29Q240.17-19.29 241.39-14.4L241.39-14.4Q241.87-12.6 241.87-10.3L241.87-10.3Q241.87-3.42 238.16-1.37L238.16-1.37Q236.99-0.73 235.58-0.73L235.58-0.73Q231.91-0.73 230.4-4.64L230.4-4.64Q229.67-6.69 229.67-9.38L229.67-9.38Q229.67-15.28 232.6-17.92L232.6-17.92Q234.16-19.29 236.16-19.29Z" opacity="1" transform="matrix(1,0,0,1,0,0)" fill="white" class="wordmark-text-0" id="SvgjsPath1024"></path></svg></g></svg></g></svg></g></svg></g><g transform="matrix(1,0,0,1,407.87238213734213,0)"><svg viewBox="0 0 154.26766569176087 72.31142561635599" height="72.31142561635599" width="154.26766569176087"><g><svg xmlns="http://www.w3.org/2000/svg" xmlns:xlink="http://www.w3.org/1999/xlink" version="1.0" x="0" y="0" viewBox="0 0 100 46.874" enable-background="new 0 0 100 46.875" xml:space="preserve" id="SvgjsSvg1023" width="154.26766569176087" height="72.31142561635599" class="icon-icon-0" data-fill-palette-color="accent"><g fill="black"><path d="M100 7.812V0H0V46.874H100V39.062H53.125V7.812zM95.156 2.37C95.156 1.924 95.517 1.562 95.964 1.562H99.035C99.48 1.562 99.843 1.924 99.843 2.37V5.441A0.81 0.81 0 0 1 99.035 6.249H95.964A0.81 0.81 0 0 1 95.156 5.441zM86.719 2.37C86.719 1.924 87.081 1.562 87.528 1.562H90.598A0.81 0.81 0 0 1 91.407 2.37V5.441A0.81 0.81 0 0 1 90.598 6.249H87.528A0.81 0.81 0 0 1 86.719 5.441zM78.281 2.37C78.281 1.924 78.642 1.562 79.089 1.562H82.16C82.605 1.562 82.968 1.924 82.968 2.37V5.441A0.81 0.81 0 0 1 82.16 6.249H79.089A0.81 0.81 0 0 1 78.281 5.441zM69.844 2.37C69.844 1.924 70.206 1.562 70.653 1.562H73.723A0.81 0.81 0 0 1 74.532 2.37V5.441A0.81 0.81 0 0 1 73.723 6.249H70.653A0.81 0.81 0 0 1 69.844 5.441zM61.406 2.37C61.406 1.924 61.767 1.562 62.214 1.562H65.285C65.73 1.562 66.093 1.924 66.093 2.37V5.441A0.81 0.81 0 0 1 65.285 6.249H62.214A0.81 0.81 0 0 1 61.406 5.441zM45.156 2.37C45.156 1.924 45.518 1.562 45.964 1.562H49.035C49.481 1.562 49.843 1.924 49.843 2.37V5.441A0.81 0.81 0 0 1 49.035 6.249H45.964A0.81 0.81 0 0 1 45.156 5.441zM36.719 2.37C36.719 1.924 37.081 1.562 37.527 1.562H40.598C41.044 1.562 41.406 1.924 41.406 2.37V5.441A0.81 0.81 0 0 1 40.598 6.249H37.527A0.81 0.81 0 0 1 36.719 5.441zM28.281 2.37C28.281 1.924 28.643 1.562 29.089 1.562H32.16C32.606 1.562 32.968 1.924 32.968 2.37V5.441A0.81 0.81 0 0 1 32.16 6.249H29.089A0.81 0.81 0 0 1 28.281 5.441zM19.844 2.37C19.844 1.924 20.206 1.562 20.652 1.562H23.723C24.169 1.562 24.531 1.924 24.531 2.37V5.441A0.81 0.81 0 0 1 23.723 6.249H20.652A0.81 0.81 0 0 1 19.844 5.441zM11.406 2.37C11.406 1.924 11.768 1.562 12.214 1.562H15.285C15.731 1.562 16.093 1.924 16.093 2.37V5.441A0.81 0.81 0 0 1 15.285 6.249H12.214A0.81 0.81 0 0 1 11.406 5.441zM2.969 2.37C2.969 1.924 3.331 1.562 3.777 1.562H6.848C7.294 1.562 7.656 1.924 7.656 2.37V5.441A0.81 0.81 0 0 1 6.848 6.249H3.777A0.81 0.81 0 0 1 2.969 5.441zM7.656 44.504A0.81 0.81 0 0 1 6.848 45.313H3.777A0.81 0.81 0 0 1 2.969 44.504V41.434C2.969 40.987 3.331 40.625 3.777 40.625H6.848C7.294 40.625 7.656 40.986 7.656 41.434zM16.094 44.504A0.81 0.81 0 0 1 15.286 45.313H12.215A0.81 0.81 0 0 1 11.407 44.504V41.434C11.407 40.987 11.769 40.625 12.215 40.625H15.286C15.732 40.625 16.094 40.986 16.094 41.434zM24.531 44.504A0.81 0.81 0 0 1 23.723 45.313H20.652A0.81 0.81 0 0 1 19.844 44.504V41.434C19.844 40.987 20.206 40.625 20.652 40.625H23.723C24.169 40.625 24.531 40.986 24.531 41.434zM32.969 44.504A0.81 0.81 0 0 1 32.161 45.313H29.09A0.81 0.81 0 0 1 28.282 44.504V41.434C28.282 40.987 28.644 40.625 29.09 40.625H32.161C32.607 40.625 32.969 40.986 32.969 41.434zM41.406 44.504A0.81 0.81 0 0 1 40.598 45.313H37.527A0.81 0.81 0 0 1 36.719 44.504V41.434C36.719 40.987 37.081 40.625 37.527 40.625H40.598C41.044 40.625 41.406 40.986 41.406 41.434zM49.844 44.504A0.81 0.81 0 0 1 49.036 45.313H45.965A0.81 0.81 0 0 1 45.157 44.504V41.434C45.157 40.987 45.519 40.625 45.965 40.625H49.036C49.482 40.625 49.844 40.986 49.844 41.434zM50 39.062H3.125V7.812H50zM95.156 41.434C95.156 40.987 95.517 40.625 95.964 40.625H99.035C99.48 40.625 99.843 40.986 99.843 41.434V44.504A0.81 0.81 0 0 1 99.035 45.313H95.964A0.81 0.81 0 0 1 95.156 44.504zM86.719 41.434C86.719 40.987 87.081 40.625 87.528 40.625H90.598C91.044 40.625 91.407 40.986 91.407 41.434V44.504A0.81 0.81 0 0 1 90.598 45.313H87.528A0.81 0.81 0 0 1 86.719 44.504zM78.281 41.434C78.281 40.987 78.642 40.625 79.089 40.625H82.16C82.605 40.625 82.968 40.986 82.968 41.434V44.504A0.81 0.81 0 0 1 82.16 45.313H79.089A0.81 0.81 0 0 1 78.281 44.504zM69.844 41.434C69.844 40.987 70.206 40.625 70.653 40.625H73.723C74.169 40.625 74.532 40.986 74.532 41.434V44.504A0.81 0.81 0 0 1 73.723 45.313H70.653A0.81 0.81 0 0 1 69.844 44.504zM61.406 41.434C61.406 40.987 61.767 40.625 62.214 40.625H65.285C65.73 40.625 66.093 40.986 66.093 41.434V44.504A0.81 0.81 0 0 1 65.285 45.313H62.214A0.81 0.81 0 0 1 61.406 44.504zM53.777 40.625H56.847C57.293 40.625 57.656 40.986 57.656 41.432V44.504A0.81 0.81 0 0 1 56.847 45.311H53.777A0.81 0.81 0 0 1 52.968 44.504V41.432A0.81 0.81 0 0 1 53.777 40.625M52.969 5.441V2.37C52.969 1.924 53.331 1.562 53.778 1.562H56.848A0.81 0.81 0 0 1 57.657 2.37V5.441A0.81 0.81 0 0 1 56.848 6.249H53.778A0.807 0.807 0 0 1 52.969 5.441" fill="black"></path></g></svg></g></svg></g></svg></g><defs><mask></mask></defs></svg><rect width="395.52" height="50.87809553906047" fill="black" stroke="none" visibility="hidden"></rect></g></mask><linearGradient x1="0.054" x2="0.941" y1="0.5" y2="0.5" id="3900be11-0d6c-447f-a032-e0060e0d95e1"><stop stop-color="#9c7945" offset="0"></stop><stop stop-color="#faf3aa" offset="0.498"></stop><stop stop-color="#9c7945" offset="1"></stop></linearGradient><rect width="395.52" height="50.87809553906047" fill="url(#3900be11-0d6c-447f-a032-e0060e0d95e1)" mask="url(#4ca0be61-49e2-49f0-af1d-059e51288b07)" data-fill-palette-color="primary"></rect><mask id="2e01e3ee-478e-4773-aef2-fc8983f0598f"><g id="SvgjsG1046"><svg viewBox="0 0 395.52 50.87809553906047" height="50.87809553906047" width="395.52"><g><svg viewBox="0 0 562.140047829103 72.31142561635599" height="50.87809553906047" width="395.52"><g transform="matrix(1,0,0,1,0,9.993836680697537)"><svg viewBox="0 0 395.52 52.323752254960915" height="52.323752254960915" width="395.52"><g id="SvgjsG1045"><svg viewBox="0 0 395.52 52.323752254960915" height="52.323752254960915" width="395.52" id="SvgjsSvg1044"><g><svg viewBox="0 0 395.52 52.323752254960915" height="52.323752254960915" width="395.52"><g transform="matrix(1,0,0,1,0,0)"><svg width="395.52" viewBox="2.4399999999999995 -31.74 243.58 32.230000000000004" height="52.323752254960915" data-palette-color="url(#3900be11-0d6c-447f-a032-e0060e0d95e1)"></svg></g></svg></g></svg></g></svg></g><g transform="matrix(1,0,0,1,407.87238213734213,0)"><svg viewBox="0 0 154.26766569176087 72.31142561635599" height="72.31142561635599" width="154.26766569176087"><g><svg xmlns="http://www.w3.org/2000/svg" xmlns:xlink="http://www.w3.org/1999/xlink" version="1.0" x="0" y="0" viewBox="0 0 100 46.874" enable-background="new 0 0 100 46.875" xml:space="preserve" id="SvgjsSvg1043" width="154.26766569176087" height="72.31142561635599" class="icon-icon-0" data-fill-palette-color="accent"><g fill="white"><path d="M100 7.812V0H0V46.874H100V39.062H53.125V7.812zM95.156 2.37C95.156 1.924 95.517 1.562 95.964 1.562H99.035C99.48 1.562 99.843 1.924 99.843 2.37V5.441A0.81 0.81 0 0 1 99.035 6.249H95.964A0.81 0.81 0 0 1 95.156 5.441zM86.719 2.37C86.719 1.924 87.081 1.562 87.528 1.562H90.598A0.81 0.81 0 0 1 91.407 2.37V5.441A0.81 0.81 0 0 1 90.598 6.249H87.528A0.81 0.81 0 0 1 86.719 5.441zM78.281 2.37C78.281 1.924 78.642 1.562 79.089 1.562H82.16C82.605 1.562 82.968 1.924 82.968 2.37V5.441A0.81 0.81 0 0 1 82.16 6.249H79.089A0.81 0.81 0 0 1 78.281 5.441zM69.844 2.37C69.844 1.924 70.206 1.562 70.653 1.562H73.723A0.81 0.81 0 0 1 74.532 2.37V5.441A0.81 0.81 0 0 1 73.723 6.249H70.653A0.81 0.81 0 0 1 69.844 5.441zM61.406 2.37C61.406 1.924 61.767 1.562 62.214 1.562H65.285C65.73 1.562 66.093 1.924 66.093 2.37V5.441A0.81 0.81 0 0 1 65.285 6.249H62.214A0.81 0.81 0 0 1 61.406 5.441zM45.156 2.37C45.156 1.924 45.518 1.562 45.964 1.562H49.035C49.481 1.562 49.843 1.924 49.843 2.37V5.441A0.81 0.81 0 0 1 49.035 6.249H45.964A0.81 0.81 0 0 1 45.156 5.441zM36.719 2.37C36.719 1.924 37.081 1.562 37.527 1.562H40.598C41.044 1.562 41.406 1.924 41.406 2.37V5.441A0.81 0.81 0 0 1 40.598 6.249H37.527A0.81 0.81 0 0 1 36.719 5.441zM28.281 2.37C28.281 1.924 28.643 1.562 29.089 1.562H32.16C32.606 1.562 32.968 1.924 32.968 2.37V5.441A0.81 0.81 0 0 1 32.16 6.249H29.089A0.81 0.81 0 0 1 28.281 5.441zM19.844 2.37C19.844 1.924 20.206 1.562 20.652 1.562H23.723C24.169 1.562 24.531 1.924 24.531 2.37V5.441A0.81 0.81 0 0 1 23.723 6.249H20.652A0.81 0.81 0 0 1 19.844 5.441zM11.406 2.37C11.406 1.924 11.768 1.562 12.214 1.562H15.285C15.731 1.562 16.093 1.924 16.093 2.37V5.441A0.81 0.81 0 0 1 15.285 6.249H12.214A0.81 0.81 0 0 1 11.406 5.441zM2.969 2.37C2.969 1.924 3.331 1.562 3.777 1.562H6.848C7.294 1.562 7.656 1.924 7.656 2.37V5.441A0.81 0.81 0 0 1 6.848 6.249H3.777A0.81 0.81 0 0 1 2.969 5.441zM7.656 44.504A0.81 0.81 0 0 1 6.848 45.313H3.777A0.81 0.81 0 0 1 2.969 44.504V41.434C2.969 40.987 3.331 40.625 3.777 40.625H6.848C7.294 40.625 7.656 40.986 7.656 41.434zM16.094 44.504A0.81 0.81 0 0 1 15.286 45.313H12.215A0.81 0.81 0 0 1 11.407 44.504V41.434C11.407 40.987 11.769 40.625 12.215 40.625H15.286C15.732 40.625 16.094 40.986 16.094 41.434zM24.531 44.504A0.81 0.81 0 0 1 23.723 45.313H20.652A0.81 0.81 0 0 1 19.844 44.504V41.434C19.844 40.987 20.206 40.625 20.652 40.625H23.723C24.169 40.625 24.531 40.986 24.531 41.434zM32.969 44.504A0.81 0.81 0 0 1 32.161 45.313H29.09A0.81 0.81 0 0 1 28.282 44.504V41.434C28.282 40.987 28.644 40.625 29.09 40.625H32.161C32.607 40.625 32.969 40.986 32.969 41.434zM41.406 44.504A0.81 0.81 0 0 1 40.598 45.313H37.527A0.81 0.81 0 0 1 36.719 44.504V41.434C36.719 40.987 37.081 40.625 37.527 40.625H40.598C41.044 40.625 41.406 40.986 41.406 41.434zM49.844 44.504A0.81 0.81 0 0 1 49.036 45.313H45.965A0.81 0.81 0 0 1 45.157 44.504V41.434C45.157 40.987 45.519 40.625 45.965 40.625H49.036C49.482 40.625 49.844 40.986 49.844 41.434zM50 39.062H3.125V7.812H50zM95.156 41.434C95.156 40.987 95.517 40.625 95.964 40.625H99.035C99.48 40.625 99.843 40.986 99.843 41.434V44.504A0.81 0.81 0 0 1 99.035 45.313H95.964A0.81 0.81 0 0 1 95.156 44.504zM86.719 41.434C86.719 40.987 87.081 40.625 87.528 40.625H90.598C91.044 40.625 91.407 40.986 91.407 41.434V44.504A0.81 0.81 0 0 1 90.598 45.313H87.528A0.81 0.81 0 0 1 86.719 44.504zM78.281 41.434C78.281 40.987 78.642 40.625 79.089 40.625H82.16C82.605 40.625 82.968 40.986 82.968 41.434V44.504A0.81 0.81 0 0 1 82.16 45.313H79.089A0.81 0.81 0 0 1 78.281 44.504zM69.844 41.434C69.844 40.987 70.206 40.625 70.653 40.625H73.723C74.169 40.625 74.532 40.986 74.532 41.434V44.504A0.81 0.81 0 0 1 73.723 45.313H70.653A0.81 0.81 0 0 1 69.844 44.504zM61.406 41.434C61.406 40.987 61.767 40.625 62.214 40.625H65.285C65.73 40.625 66.093 40.986 66.093 41.434V44.504A0.81 0.81 0 0 1 65.285 45.313H62.214A0.81 0.81 0 0 1 61.406 44.504zM53.777 40.625H56.847C57.293 40.625 57.656 40.986 57.656 41.432V44.504A0.81 0.81 0 0 1 56.847 45.311H53.777A0.81 0.81 0 0 1 52.968 44.504V41.432A0.81 0.81 0 0 1 53.777 40.625M52.969 5.441V2.37C52.969 1.924 53.331 1.562 53.778 1.562H56.848A0.81 0.81 0 0 1 57.657 2.37V5.441A0.81 0.81 0 0 1 56.848 6.249H53.778A0.807 0.807 0 0 1 52.969 5.441" fill="white"></path></g></svg></g></svg></g></svg></g><defs><mask></mask></defs><mask><g id="SvgjsG1042"><svg viewBox="0 0 395.52 50.87809553906047" height="50.87809553906047" width="395.52"><g><svg viewBox="0 0 562.140047829103 72.31142561635599" height="50.87809553906047" width="395.52"><g transform="matrix(1,0,0,1,0,9.993836680697537)"><svg viewBox="0 0 395.52 52.323752254960915" height="52.323752254960915" width="395.52"><g id="SvgjsG1041"><svg viewBox="0 0 395.52 52.323752254960915" height="52.323752254960915" width="395.52" id="SvgjsSvg1040"><g><svg viewBox="0 0 395.52 52.323752254960915" height="52.323752254960915" width="395.52"><g transform="matrix(1,0,0,1,0,0)"><svg width="395.52" viewBox="2.4399999999999995 -31.74 243.58 32.230000000000004" height="52.323752254960915" data-palette-color="url(#3900be11-0d6c-447f-a032-e0060e0d95e1)"><path d="M26.76-2.25L26.76-2.25Q26.76-0.2 27.34 0.1L27.34 0.1Q27.69 0.24 28.27 0.24L28.27 0.24 28.27-8.98 27.1-8.98Q24.61-0.93 17.14-0.88L17.14-0.88Q10.79-0.88 8.5-7.28L8.5-7.28Q7.37-10.4 7.37-14.65L7.37-14.65Q7.37-23.78 12.4-27.05L12.4-27.05Q14.6-28.42 17.29-28.42L17.29-28.42Q23.39-28.42 26.12-22.66L26.12-22.66Q26.61-21.63 26.95-20.56L26.95-20.56 28.13-20.56 27.98-29.54Q26.9-29.54 26.66-28.86L26.66-28.86Q26.51-28.27 26.51-26.95L26.51-26.95Q25.1-28.37 21.68-29.25L21.68-29.25Q19.43-29.79 17.09-29.79L17.09-29.79Q9.38-29.79 5.27-24.07L5.27-24.07Q2.44-20.02 2.44-14.75L2.44-14.75Q2.44-8.35 6.4-4L6.4-4Q10.6 0.49 17.33 0.49L17.33 0.49Q22.27 0.44 26.76-2.25ZM41.94-1.22L41.94-1.22 39.5-1.22 39.5-20.75 31.93-20.75 31.93-19.53 35.84-19.53 35.84-4.15Q35.84-1.9 34.32-1.42L34.32-1.42Q33.59-1.22 31.93-1.22L31.93-1.22 31.93 0 43.16 0Q43.16-1.07 42.43-1.17L42.43-1.17Q42.19-1.22 41.94-1.22ZM40.09-27.88L40.09-27.88Q40.09-29.59 38.57-30.32L38.57-30.32Q37.99-30.57 37.45-30.57L37.45-30.57Q35.74-30.57 35.01-29L35.01-29Q34.76-28.47 34.76-27.88L34.76-27.88Q34.76-26.07 36.37-25.39L36.37-25.39Q36.91-25.2 37.45-25.2L37.45-25.2Q39.16-25.2 39.84-26.76L39.84-26.76Q40.09-27.29 40.09-27.88ZM55.61-1.22L55.61-1.22 53.41-1.22 53.41-11.77Q53.56-16.31 56.64-18.31L56.64-18.31Q57.95-19.14 59.32-19.14L59.32-19.14Q62.3-19.14 63.37-16.36L63.37-16.36Q63.81-15.23 63.81-13.82L63.81-13.82 63.81-4.15Q63.81-1.9 62.54-1.46L62.54-1.46Q61.81-1.22 60.15-1.22L60.15-1.22 60.15 0 71.14 0Q71.14-1.07 70.41-1.17L70.41-1.17Q70.21-1.22 69.92-1.22L69.92-1.22 67.48-1.22 67.48-13.33Q67.48-18.21 64.11-20.31L64.11-20.31Q62.54-21.24 60.74-21.24L60.74-21.24Q57.12-21.24 54.78-18.36L54.78-18.36Q53.9-17.24 53.36-15.87L53.36-15.87 53.17-20.75 46.09-20.75 46.09-19.53 49.75-19.53 49.75-4.15Q49.75-1.9 48.48-1.46L48.48-1.46Q47.75-1.22 46.09-1.22L46.09-1.22 46.09 0 56.83 0Q56.83-1.07 56.1-1.17L56.1-1.17Q55.9-1.22 55.61-1.22ZM84.51-20.02L84.51-20.02Q87.93-20.02 89.06-17.14L89.06-17.14Q89.45-16.21 89.45-15.14L89.45-15.14Q89.45-12.7 87.1-12.16L87.1-12.16Q85.88-11.91 83.64-11.96L83.64-11.96 78.46-12.11Q78.7-17.72 82.12-19.43L82.12-19.43Q83.24-20.02 84.51-20.02ZM93.01-4.69L93.01-4.69 91.79-5.13Q90.08-1.42 86.27-0.93L86.27-0.93Q85.78-0.88 85.34-0.88L85.34-0.88Q80.22-0.88 78.9-6.98L78.9-6.98Q78.51-8.69 78.46-10.74L78.46-10.74 84.32-10.64Q90.28-10.55 91.98-11.77L91.98-11.77Q93.3-12.74 93.3-14.55L93.3-14.55Q93.3-17.87 89.93-19.82L89.93-19.82Q87.54-21.24 84.42-21.24L84.42-21.24Q78.31-21.24 75.68-16.16L75.68-16.16Q74.31-13.53 74.31-10.21L74.31-10.21Q74.31-4.15 78.65-1.22L78.65-1.22Q81.24 0.49 84.56 0.49L84.56 0.49Q89.84 0.49 92.33-3.32L92.33-3.32Q92.72-4 93.01-4.69ZM106-1.22L106-1.22 103.8-1.22 103.8-11.77Q103.95-16.06 106.78-18.16L106.78-18.16Q108.1-19.14 109.41-19.14L109.41-19.14Q111.86-19.14 112.78-16.46L112.78-16.46Q113.17-15.28 113.17-13.82L113.17-13.82 113.17-4.15Q113.17-1.9 112.1-1.46L112.1-1.46Q111.42-1.22 109.76-1.22L109.76-1.22 109.76 0 120.25 0Q120.25-1.07 119.52-1.17L119.52-1.17Q119.33-1.22 119.03-1.22L119.03-1.22 116.84-1.22 116.84-13.33 116.84-13.72Q117.62-17.29 120.3-18.7L120.3-18.7Q121.33-19.19 122.26-19.19L122.26-19.19Q124.75-19.19 125.77-16.6L125.77-16.6Q126.26-15.38 126.26-13.82L126.26-13.82 126.26-4.15Q126.26-1.9 125.19-1.46L125.19-1.46Q124.5-1.22 122.84-1.22L122.84-1.22 122.84 0 133.63 0Q133.63-1.07 132.9-1.17L132.9-1.17Q132.7-1.22 132.41-1.22L132.41-1.22 129.92-1.22 129.92-13.33Q129.92-18.36 126.65-20.36L126.65-20.36Q125.19-21.24 123.48-21.24L123.48-21.24Q119.77-21.24 117.52-17.77L117.52-17.77Q116.93-16.89 116.54-15.92L116.54-15.92Q115.66-19.78 112.69-20.9L112.69-20.9Q111.81-21.24 110.88-21.24L110.88-21.24Q107.36-21.24 105.07-18.26L105.07-18.26Q104.24-17.19 103.75-15.87L103.75-15.87 103.55-20.75 96.47-20.75 96.47-19.53 100.14-19.53 100.14-4.15Q100.14-1.9 98.87-1.46L98.87-1.46Q98.13-1.22 96.47-1.22L96.47-1.22 96.47 0 107.22 0Q107.22-1.03 106.48-1.17L106.48-1.17Q106.24-1.22 106-1.22ZM153.94 0.49L153.94 0.49Q157.7 0.49 158.09-4.05L158.09-4.05Q158.14-4.35 158.14-4.59L158.14-4.59 156.87-4.64Q156.53-1.07 154.97-1.03L154.97-1.03Q153.7-1.12 153.65-3.56L153.65-3.56 153.65-13.87Q153.65-20.85 146.67-21.24L146.67-21.24Q146.23-21.24 145.79-21.24L145.79-21.24Q140.32-21.24 138.46-18.7L138.46-18.7Q137.88-17.87 137.88-17.04L137.88-17.04Q137.88-15.53 139.29-15.28L139.29-15.28Q139.54-15.23 139.78-15.23L139.78-15.23Q140.91-15.23 141.44-16.65L141.44-16.65Q142.13-18.46 142.37-18.8L142.37-18.8Q143.3-20.02 145.25-20.02L145.25-20.02Q149.84-19.73 149.99-14.99L149.99-14.99 149.99-11.91Q138.51-11.91 136.85-7.13L136.85-7.13Q136.56-6.2 136.56-5.13L136.56-5.13Q136.56-1.42 139.83-0.05L139.83-0.05Q141.15 0.49 142.61 0.49L142.61 0.49Q146.18 0.49 148.62-1.95L148.62-1.95Q149.5-2.88 149.94-3.91L149.94-3.91Q150.52 0.44 153.94 0.49ZM144.23-1.46L144.23-1.46Q141.25-1.46 140.56-4.44L140.56-4.44Q140.42-5.13 140.42-5.96L140.42-5.96Q140.42-9.23 144.18-10.11L144.18-10.11Q146.18-10.55 149.99-10.6L149.99-10.6 149.99-6.69Q149.26-3.32 146.42-1.95L146.42-1.95Q145.3-1.46 144.23-1.46ZM160.34 0L172.3 0Q172.3-1.07 171.52-1.22L171.52-1.22Q171.27-1.27 171.03-1.27L171.03-1.27 168.44-1.27 168.44-14.4 183.43-14.4 183.43-1.27 179.53-1.27 179.53 0 191.49 0Q191.49-1.07 190.71-1.22L190.71-1.22Q190.46-1.27 190.22-1.27L190.22-1.27 187.63-1.27 187.63-28.03 191.49-28.03 191.49-29.3 179.53-29.3 179.53-28.03 183.43-28.03 183.43-15.82 168.44-15.82 168.44-28.03 172.3-28.03 172.3-29.3 160.34-29.3 160.34-28.03 164.24-28.03 164.24-1.27 160.34-1.27 160.34 0ZM218.59-1.22L218.59-1.22 216.14-1.22 216.14-20.75 208.48-20.75 208.48-19.53 212.48-19.53 212.48-8.98Q212.48-4.59 209.41-2.54L209.41-2.54Q208.04-1.61 206.57-1.61L206.57-1.61Q202.57-1.61 201.94-5.71L201.94-5.71Q201.84-6.4 201.84-7.18L201.84-7.18 201.84-20.75 194.42-20.75 194.42-19.53 198.18-19.53 198.18-7.91Q198.22 0.44 205.16 0.49L205.16 0.49Q208.82 0.49 211.16-2.49L211.16-2.49Q212.04-3.61 212.58-4.98L212.58-4.98 212.92 0 219.81 0Q219.81-1.07 219.07-1.17L219.07-1.17Q218.88-1.22 218.59-1.22ZM236.06 0.49L236.06 0.49Q240.36 0.49 243.29-2.73L243.29-2.73Q246.02-5.86 246.02-10.64L246.02-10.64Q246.02-16.02 243.1-19.04L243.1-19.04Q240.9-21.24 237.68-21.24L237.68-21.24Q232.35-21.24 230.11-16.46L230.11-16.46Q229.86-16.02 229.72-15.58L229.72-15.58 229.72-31.74 222.39-31.74 222.39-30.52 226.05-30.52 226.05-4.15Q226.05-1.9 224.78-1.46L224.78-1.46Q224.05-1.22 222.39-1.22L222.39-1.22 222.39 0 228.54 0 228.98-3.22Q231.08 0.15 235.33 0.44L235.33 0.44Q235.72 0.49 236.06 0.49ZM236.16-19.29L236.16-19.29Q240.17-19.29 241.39-14.4L241.39-14.4Q241.87-12.6 241.87-10.3L241.87-10.3Q241.87-3.42 238.16-1.37L238.16-1.37Q236.99-0.73 235.58-0.73L235.58-0.73Q231.91-0.73 230.4-4.64L230.4-4.64Q229.67-6.69 229.67-9.38L229.67-9.38Q229.67-15.28 232.6-17.92L232.6-17.92Q234.16-19.29 236.16-19.29Z" opacity="1" transform="matrix(1,0,0,1,0,0)" fill="black" class="wordmark-text-0" id="SvgjsPath1039"></path></svg></g></svg></g></svg></g></svg></g><g transform="matrix(1,0,0,1,407.87238213734213,0)"><svg viewBox="0 0 154.26766569176087 72.31142561635599" height="72.31142561635599" width="154.26766569176087"><g><svg xmlns="http://www.w3.org/2000/svg" xmlns:xlink="http://www.w3.org/1999/xlink" version="1.0" x="0" y="0" viewBox="0 0 100 46.874" enable-background="new 0 0 100 46.875" xml:space="preserve" id="SvgjsSvg1038" width="154.26766569176087" height="72.31142561635599" class="icon-icon-0" data-fill-palette-color="accent"><g fill="black"><path d="M100 7.812V0H0V46.874H100V39.062H53.125V7.812zM95.156 2.37C95.156 1.924 95.517 1.562 95.964 1.562H99.035C99.48 1.562 99.843 1.924 99.843 2.37V5.441A0.81 0.81 0 0 1 99.035 6.249H95.964A0.81 0.81 0 0 1 95.156 5.441zM86.719 2.37C86.719 1.924 87.081 1.562 87.528 1.562H90.598A0.81 0.81 0 0 1 91.407 2.37V5.441A0.81 0.81 0 0 1 90.598 6.249H87.528A0.81 0.81 0 0 1 86.719 5.441zM78.281 2.37C78.281 1.924 78.642 1.562 79.089 1.562H82.16C82.605 1.562 82.968 1.924 82.968 2.37V5.441A0.81 0.81 0 0 1 82.16 6.249H79.089A0.81 0.81 0 0 1 78.281 5.441zM69.844 2.37C69.844 1.924 70.206 1.562 70.653 1.562H73.723A0.81 0.81 0 0 1 74.532 2.37V5.441A0.81 0.81 0 0 1 73.723 6.249H70.653A0.81 0.81 0 0 1 69.844 5.441zM61.406 2.37C61.406 1.924 61.767 1.562 62.214 1.562H65.285C65.73 1.562 66.093 1.924 66.093 2.37V5.441A0.81 0.81 0 0 1 65.285 6.249H62.214A0.81 0.81 0 0 1 61.406 5.441zM45.156 2.37C45.156 1.924 45.518 1.562 45.964 1.562H49.035C49.481 1.562 49.843 1.924 49.843 2.37V5.441A0.81 0.81 0 0 1 49.035 6.249H45.964A0.81 0.81 0 0 1 45.156 5.441zM36.719 2.37C36.719 1.924 37.081 1.562 37.527 1.562H40.598C41.044 1.562 41.406 1.924 41.406 2.37V5.441A0.81 0.81 0 0 1 40.598 6.249H37.527A0.81 0.81 0 0 1 36.719 5.441zM28.281 2.37C28.281 1.924 28.643 1.562 29.089 1.562H32.16C32.606 1.562 32.968 1.924 32.968 2.37V5.441A0.81 0.81 0 0 1 32.16 6.249H29.089A0.81 0.81 0 0 1 28.281 5.441zM19.844 2.37C19.844 1.924 20.206 1.562 20.652 1.562H23.723C24.169 1.562 24.531 1.924 24.531 2.37V5.441A0.81 0.81 0 0 1 23.723 6.249H20.652A0.81 0.81 0 0 1 19.844 5.441zM11.406 2.37C11.406 1.924 11.768 1.562 12.214 1.562H15.285C15.731 1.562 16.093 1.924 16.093 2.37V5.441A0.81 0.81 0 0 1 15.285 6.249H12.214A0.81 0.81 0 0 1 11.406 5.441zM2.969 2.37C2.969 1.924 3.331 1.562 3.777 1.562H6.848C7.294 1.562 7.656 1.924 7.656 2.37V5.441A0.81 0.81 0 0 1 6.848 6.249H3.777A0.81 0.81 0 0 1 2.969 5.441zM7.656 44.504A0.81 0.81 0 0 1 6.848 45.313H3.777A0.81 0.81 0 0 1 2.969 44.504V41.434C2.969 40.987 3.331 40.625 3.777 40.625H6.848C7.294 40.625 7.656 40.986 7.656 41.434zM16.094 44.504A0.81 0.81 0 0 1 15.286 45.313H12.215A0.81 0.81 0 0 1 11.407 44.504V41.434C11.407 40.987 11.769 40.625 12.215 40.625H15.286C15.732 40.625 16.094 40.986 16.094 41.434zM24.531 44.504A0.81 0.81 0 0 1 23.723 45.313H20.652A0.81 0.81 0 0 1 19.844 44.504V41.434C19.844 40.987 20.206 40.625 20.652 40.625H23.723C24.169 40.625 24.531 40.986 24.531 41.434zM32.969 44.504A0.81 0.81 0 0 1 32.161 45.313H29.09A0.81 0.81 0 0 1 28.282 44.504V41.434C28.282 40.987 28.644 40.625 29.09 40.625H32.161C32.607 40.625 32.969 40.986 32.969 41.434zM41.406 44.504A0.81 0.81 0 0 1 40.598 45.313H37.527A0.81 0.81 0 0 1 36.719 44.504V41.434C36.719 40.987 37.081 40.625 37.527 40.625H40.598C41.044 40.625 41.406 40.986 41.406 41.434zM49.844 44.504A0.81 0.81 0 0 1 49.036 45.313H45.965A0.81 0.81 0 0 1 45.157 44.504V41.434C45.157 40.987 45.519 40.625 45.965 40.625H49.036C49.482 40.625 49.844 40.986 49.844 41.434zM50 39.062H3.125V7.812H50zM95.156 41.434C95.156 40.987 95.517 40.625 95.964 40.625H99.035C99.48 40.625 99.843 40.986 99.843 41.434V44.504A0.81 0.81 0 0 1 99.035 45.313H95.964A0.81 0.81 0 0 1 95.156 44.504zM86.719 41.434C86.719 40.987 87.081 40.625 87.528 40.625H90.598C91.044 40.625 91.407 40.986 91.407 41.434V44.504A0.81 0.81 0 0 1 90.598 45.313H87.528A0.81 0.81 0 0 1 86.719 44.504zM78.281 41.434C78.281 40.987 78.642 40.625 79.089 40.625H82.16C82.605 40.625 82.968 40.986 82.968 41.434V44.504A0.81 0.81 0 0 1 82.16 45.313H79.089A0.81 0.81 0 0 1 78.281 44.504zM69.844 41.434C69.844 40.987 70.206 40.625 70.653 40.625H73.723C74.169 40.625 74.532 40.986 74.532 41.434V44.504A0.81 0.81 0 0 1 73.723 45.313H70.653A0.81 0.81 0 0 1 69.844 44.504zM61.406 41.434C61.406 40.987 61.767 40.625 62.214 40.625H65.285C65.73 40.625 66.093 40.986 66.093 41.434V44.504A0.81 0.81 0 0 1 65.285 45.313H62.214A0.81 0.81 0 0 1 61.406 44.504zM53.777 40.625H56.847C57.293 40.625 57.656 40.986 57.656 41.432V44.504A0.81 0.81 0 0 1 56.847 45.311H53.777A0.81 0.81 0 0 1 52.968 44.504V41.432A0.81 0.81 0 0 1 53.777 40.625M52.969 5.441V2.37C52.969 1.924 53.331 1.562 53.778 1.562H56.848A0.81 0.81 0 0 1 57.657 2.37V5.441A0.81 0.81 0 0 1 56.848 6.249H53.778A0.807 0.807 0 0 1 52.969 5.441" fill="black"></path></g></svg></g></svg></g></svg></g><defs><mask></mask></defs></svg><rect width="395.52" height="50.87809553906047" fill="black" stroke="none" visibility="hidden"></rect></g></mask></svg><rect width="395.52" height="50.87809553906047" fill="black" stroke="none" visibility="hidden"></rect></g></mask><linearGradient x1="0.054" x2="0.941" y1="0.5" y2="0.5" id="89373435-3834-4d1a-8f4b-de9ce50e9a48"><stop stop-color="#9c7945" offset="0"></stop><stop stop-color="#faf3aa" offset="0.498"></stop><stop stop-color="#9c7945" offset="1"></stop></linearGradient><rect width="395.52" height="50.87809553906047" fill="url(#89373435-3834-4d1a-8f4b-de9ce50e9a48)" mask="url(#2e01e3ee-478e-4773-aef2-fc8983f0598f)" data-fill-palette-color="accent"></rect></svg><rect width="395.52" height="50.87809553906047" fill="none" stroke="none" visibility="hidden"></rect></g></svg></g></svg>